<?xml version="1.0" encoding="UTF-8"?>
<!DOCTYPE svg PUBLIC "-//W3C//DTD SVG 1.1//EN" "http://www.w3.org/Graphics/SVG/1.1/DTD/svg11.dtd">
<!-- Creator: CorelDRAW -->
<svg xmlns="http://www.w3.org/2000/svg" xml:space="preserve" width="1.97319in" height="2.31635in" version="1.1" style="shape-rendering:geometricPrecision; text-rendering:geometricPrecision; image-rendering:optimizeQuality; fill-rule:evenodd; clip-rule:evenodd"
viewBox="0 0 1709.16 2006.4"
 xmlns:xlink="http://www.w3.org/1999/xlink"
 xmlns:xodm="http://www.corel.com/coreldraw/odm/2003">
 <defs>
  <style type="text/css">
   <![CDATA[
    .fil0 {fill:#FEFEFE}
   ]]>
  </style>
 </defs>
 <g id="Layer_x0020_1">
  <metadata id="CorelCorpID_0Corel-Layer"/>
  <g id="_2824709131024">
   <path class="fil0" d="M1255 1688.95l185.69 -0.25 -0.28 259.74 -185.25 0.01 -0.16 -32.87 0 -226.63zm454.16 -1034.95l0 229.68c-1.98,100.4 -4.6,231.97 -4.6,404.38 0,121.1 0,242.2 0,363.3 0,30.2 2.94,82.58 4.6,138.33l0 119.52c-2.11,44.64 -7.57,81.32 -19.26,97.19l-1681.63 0 2.15 -1963.84c5.89,-22.85 3.47,-13.59 25.58,-37.16 1.27,-1.34 3.62,-3.5 5.26,-5.39l1020.59 0c47.53,41.12 29.62,153.86 29.65,264.22 0.03,99.71 0.26,199.45 -0.16,299.15 79.75,8.23 349.07,2.24 460.96,2.23 113.73,-0.01 148.62,-21.87 156.88,88.4zm-1354.37 932.76c20.83,-16.6 64.41,-8.97 91.08,-8.93l294.57 1.9c3.21,18.34 9.77,320.3 1.01,358.35l-6.02 10.72 -381.09 -0.41 0.44 -361.63zm737.51 -966.44l558.46 0.53 -0.19 1327.45 -171.94 -0.33 -3.7 -277.3c-8.14,-36.21 -94.7,-19.51 -129.06,-19.53 -171.08,-0.05 -129.87,-33.84 -129.87,297.55l-124.51 -1.75 0.82 -1326.61zm-1032.72 -562.21l975.27 -0.34 0.26 1890.71 -241.65 -0.68c-0.84,-82.7 10.41,-361.29 -6.24,-414.74 -95.04,-9.72 -323.8,-4.51 -432.18,-4.51 -59.25,0 -53.87,17.5 -53.3,72.92l0.5 346.53 -242.66 -1.17 -0 -1888.72z"/>
   <polygon class="fil0" points="734.18,1048.58 897,1047.83 898.9,883.83 734.21,881.96 "/>
   <polygon class="fil0" points="734.05,338.53 735.84,369.81 896.28,369.31 899.12,330.29 898.63,239.45 898.89,206.61 866.98,204.67 733.82,204.99 "/>
   <polygon class="fil0" points="734.17,1387.11 897.26,1386.42 898.74,1223.53 734.28,1221.86 "/>
   <polygon class="fil0" points="465.7,1044.47 628.49,1049.05 629.28,891.73 629.11,882.05 465.11,882.95 "/>
   <polygon class="fil0" points="465.88,366.58 503.62,370.43 594.49,369.77 626.84,369.98 629.69,338.56 629.2,239.45 629.12,204.99 465.37,205.95 "/>
   <polygon class="fil0" points="196.74,338.53 198.49,370.07 231.19,369.72 322.01,369.77 358.78,368.06 360.53,208.55 330.35,204.28 196.1,204.99 "/>
   <polygon class="fil0" points="196.9,1048.58 359.38,1047.61 360.46,885.61 196.75,881.76 "/>
   <polygon class="fil0" points="465.78,705.49 503.63,708.88 595.01,708.31 626.84,708.51 629.69,677.09 629.2,577.97 629.12,544.14 465.37,545.04 "/>
   <polygon class="fil0" points="734.6,708.41 896.28,707.85 898.92,545.89 734.21,543.98 "/>
   <polygon class="fil0" points="465.65,1383 628.49,1387.58 629.22,1222.04 465.57,1222.83 "/>
   <polygon class="fil0" points="196.81,1387.11 359.38,1386.14 360.34,1225.2 197.2,1221.67 "/>
   <polygon class="fil0" points="197.28,708.73 231.19,708.22 322.01,708.31 358.78,706.59 360.46,547.69 206.43,543.73 196.74,544.3 "/>
   <path class="fil0" d="M-0 2006.4l8.26 0 2.15 -1963.84c5.89,-22.85 3.47,-13.59 25.58,-37.16 1.27,-1.34 3.62,-3.5 5.26,-5.39l-41.25 0 0 2006.4z"/>
   <polygon class="fil0" points="1394.82,834.52 1511,834.52 1543,833.45 1542.41,800.91 1542.51,767.88 1542.93,735.89 1511.01,734.68 1394.37,734.89 "/>
   <polygon class="fil0" points="1153.2,800.91 1153.02,834.52 1299.42,834.52 1299.38,825.68 1299.28,734.89 1152.86,734.89 "/>
   <polygon class="fil0" points="1394.48,1265.45 1543.32,1265.13 1541.82,1167.39 1396.82,1166.01 "/>
   <polygon class="fil0" points="1394.59,1050.03 1543.31,1049.72 1541.95,952.27 1396.18,950.77 "/>
   <polygon class="fil0" points="1152.9,1050.03 1299.42,1050.03 1299.38,1040.35 1298.78,950.56 1154.57,950.97 "/>
   <polygon class="fil0" points="1152.78,1265.45 1300.45,1265.45 1299.38,1255.03 1298.37,1165.87 1155.27,1166.14 "/>
   <polygon class="fil0" points="1394.26,1480.71 1543.32,1480.36 1541.49,1382.99 1398.15,1381.92 "/>
   <polygon class="fil0" points="1158.21,1479.29 1294.38,1479.45 1294.38,1385.2 1158.56,1384.88 "/>
   <path class="fil0" d="M735.44 1948.79l6.02 -10.72c8.75,-38.05 2.2,-340.01 -1.01,-358.35l-294.57 -1.9c-26.67,-0.03 -70.25,-7.67 -91.08,8.93l375.94 0 4.71 362.04z"/>
   <path class="fil0" d="M1158.21 1479.29l0.34 -94.41 135.82 0.32 0 94.26c5.07,-9.23 5.02,-2.77 7.4,-18.47 0.74,-4.85 0.97,-18.67 1.04,-24.01 0.26,-18.03 -0.58,-36.3 -2.19,-54.14 -34.92,-10.85 -114.49,-11.65 -148.21,0.78 -1.86,16.2 -2.19,28.34 -2.35,44.77 -0.39,42.13 -1.41,33.48 8.14,50.91z"/>
  </g>
 </g>
</svg>
