<?xml version="1.0" encoding="UTF-8"?>
<!DOCTYPE svg PUBLIC "-//W3C//DTD SVG 1.1//EN" "http://www.w3.org/Graphics/SVG/1.1/DTD/svg11.dtd">
<!-- Creator: CorelDRAW -->
<svg xmlns="http://www.w3.org/2000/svg" xml:space="preserve" width="2.19817in" height="2.14307in" version="1.1" style="shape-rendering:geometricPrecision; text-rendering:geometricPrecision; image-rendering:optimizeQuality; fill-rule:evenodd; clip-rule:evenodd"
viewBox="0 0 2168.71 2114.35"
 xmlns:xlink="http://www.w3.org/1999/xlink"
 xmlns:xodm="http://www.corel.com/coreldraw/odm/2003">
 <defs>
  <style type="text/css">
   <![CDATA[
    .fil0 {fill:#FEFEFE}
   ]]>
  </style>
 </defs>
 <g id="Layer_x0020_1">
  <metadata id="CorelCorpID_0Corel-Layer"/>
  <g id="_2824706690368">
   <path class="fil0" d="M867.45 1461.32c145.46,-8.33 292.17,-11.8 437.27,1.88l6.19 646.56c94.49,0.42 188.98,0.24 283.48,0.25 53.94,0.01 223.31,19.2 251,-23.25 20.52,-72.49 6.2,-508.9 6.2,-623.56 0,-430.91 38.99,-381.89 -112.38,-522.91 -61.66,-57.44 -600.16,-602.25 -653.57,-626.1 -56.85,25.39 -332.77,306.82 -411.99,388.14l-310.17 286.7c-53.85,55.3 -44.02,57.26 -43.86,139.84l0.07 886.68c0,85.55 -13.9,88.99 65.92,95.77l474.93 -1.57 -0.31 -603.11 7.23 -45.34z"/>
   <path class="fil0" d="M583.11 441.43l-0.99 -190.08 -330.17 -0.56 0.68 369.33c0,203.42 -9.96,140.56 -113.82,245.56 -38.89,39.32 -52.83,61.15 -92.08,96.62 -42.39,38.3 -59.17,53.19 -36.82,122.23 120.59,47.27 209.12,-115.87 289.97,-188.54 46.63,-41.91 83.31,-75.8 130.58,-117.25l392.36 -377.37c75.75,-84.09 180.81,-162.46 262.79,-240.27l785.74 734.9c80.88,72.69 169.46,235.78 289.97,188.54 26.27,-81.14 -17.38,-111.02 -136.26,-226.02 -69.74,-67.46 -137.41,-117.44 -206.79,-186.43l-601.48 -576.01c-161.69,-193.39 -194.76,-53.42 -319.45,59.52l-314.24 285.84z"/>
  </g>
 </g>
</svg>
