<?xml version="1.0" encoding="UTF-8"?>
<!DOCTYPE svg PUBLIC "-//W3C//DTD SVG 1.1//EN" "http://www.w3.org/Graphics/SVG/1.1/DTD/svg11.dtd">
<!-- Creator: CorelDRAW -->
<svg xmlns="http://www.w3.org/2000/svg" xml:space="preserve" width="2.08709in" height="2.08709in" version="1.1" style="shape-rendering:geometricPrecision; text-rendering:geometricPrecision; image-rendering:optimizeQuality; fill-rule:evenodd; clip-rule:evenodd"
viewBox="0 0 3250.52 3250.52"
 xmlns:xlink="http://www.w3.org/1999/xlink"
 xmlns:xodm="http://www.corel.com/coreldraw/odm/2003">
 <defs>
  <style type="text/css">
   <![CDATA[
    .fil0 {fill:#FEFEFE}
   ]]>
  </style>
 </defs>
 <g id="Layer_x0020_1">
  <metadata id="CorelCorpID_0Corel-Layer"/>
  <image x="-0" y="0" width="3250.52" height="3250.52" xlink:href="flat_Images\flat_ImgID1.png"/>
  <g id="_2860362532608">
   <path class="fil0" d="M114.28 3060.05l3021.96 0 0 82.53 -3021.96 0 0 -82.53zm2114.11 -2926.73c35.94,8.38 285.39,118.45 327.41,136.04 57.58,24.11 106.59,46.63 164.16,70.74l120.27 51.14c19.84,8.34 35.72,7.5 35.72,27.77l0 2564.86 -647.56 0 0 -2850.55zm-501.54 2272.82c25.43,-5.92 70.27,-8.85 96.3,-11.63 39.63,-4.22 66.28,-7.42 106.86,-7.42l0 596.77 -203.16 0 0 -577.73zm-596.77 -1530.03l225.83 97.95c39.61,16.56 66.21,20.29 66.21,41.72l0 1968.09 -292.04 0 0 -2107.76zm-520.59 1650.65c63.41,-5.27 136.31,-19.04 203.15,-19.04l0 476.15 -203.15 0 0 -457.11zm-133.33 -31.74c0,31.39 24.23,38.09 57.14,38.09l0 450.76 -158.72 0 0 -1803.02c0,-23.1 39.18,-31.1 74.43,-46.2 70.45,-30.19 569.35,-249.23 604.88,-252.18l0 2101.41 -158.72 0 0 -488.85c56.76,0 63,-31.15 44.44,-69.83 -77.51,-18.56 -180.28,7.52 -260.07,12.92 -34.46,2.33 -81.53,9.22 -115.05,11.91 -42.7,3.44 -88.33,1.16 -88.33,45zm1117.37 -120.62c0,38.47 29.3,38.09 50.79,38.09l0 571.38 -139.67 0 0 -2564.86c0,-21.65 31.19,-27.22 70.74,-43.54 65.1,-26.85 550.08,-239.93 576.82,-242.15l0 2850.55 -146.02 0 0 -590.43c0,-38.16 57.14,4.02 57.14,-63.49 0,-61.44 -164.44,-18.99 -266.65,-12.7 -36.2,2.23 -82.04,8.17 -115.36,11.62 -44.82,4.62 -87.79,-2.87 -87.79,45.52zm-171.42 -1460.19l-245.43 -103.75c-110.54,-49.32 -96,-34.21 -294.38,52.79l-551.65 235.58c-19.63,8.01 -32.26,15.25 -32.26,43.93l0 1841.11 -222.2 0c-63.3,0 -44.44,76.65 -44.44,190.46 0,29.64 14.8,44.44 44.44,44.44l3098.14 0c63.3,0 44.44,-76.65 44.44,-190.46 0,-29.63 -14.8,-44.44 -44.44,-44.44l-222.2 0 0 -2609.3c0,-33.84 -128.48,-76.44 -175.6,-97.4 -65.68,-29.22 -125.61,-54.11 -191.79,-81.2 -42.68,-17.48 -373.44,-164.23 -388.11,-164.23 -40.84,0 -643.9,267.89 -726.59,301.89 -62.37,25.65 -47.94,57.19 -47.94,161.56 0,139.67 0,279.34 0,419.01z"/>
   <path class="fil0" d="M2329.96 399.97l0 2418.84c0,61.08 49.96,42.73 69.83,38.1 7.37,-15.35 12.7,-27.78 12.7,-50.79l0 -2393.44c0,-69.86 -82.53,-57.21 -82.53,-12.7z"/>
   <path class="fil0" d="M2691.83 565.03l0 2253.77c0,62.89 82.54,58.38 82.54,0l0 -2253.77c0,-61.02 -82.54,-61.02 -82.54,0z"/>
   <path class="fil0" d="M2514.07 469.8l0 2361.7c0,42.39 76.18,42.39 76.18,0l0 -2349c0,-17.15 -3.03,-17.51 -6.35,-31.74 -40.31,-19.35 -69.83,-8.13 -69.83,19.04z"/>
   <path class="fil0" d="M1930 1104.67l0 -196.81c25.36,-5.9 42.91,-16.81 69.83,-19.04l0 203.15c-27.39,2.28 -40.37,12.04 -69.83,12.7zm-82.54 -215.85l0 266.64c0,76.08 87.15,35.21 145.27,18.3 117.76,-34.26 89.63,8.35 89.63,-348.43 0,-13.71 -25.5,-38.09 -31.74,-38.09 -19.49,0 -92.88,27.78 -116.67,35.69 -39.94,13.29 -86.49,17.34 -86.49,65.88z"/>
   <path class="fil0" d="M1930 1555.42l0 -203.16c27.38,-2.27 40.36,-12.04 69.83,-12.69l0 203.15c-24.34,2.02 -45.51,10.68 -69.83,12.7zm-82.54 -234.9c0,46.49 -9.8,283.91 8.74,308.7 23.64,31.59 81.75,5.12 142.78,-4.8 40.27,-6.54 83.38,-6.83 83.38,-56.29l0 -285.69c0,-60.56 -97.5,-23.03 -114.2,-18.97 -35.9,8.74 -120.7,17.36 -120.7,57.06z"/>
   <path class="fil0" d="M1930 1796.67c35.2,0 42.21,-5.73 69.83,-6.35l0 209.51 -69.83 0 0 -203.16zm-82.54 -25.39l0 279.34c0,51.95 88.28,33.84 118.81,29.93 141.4,-18.14 116.09,38.17 116.09,-334.67 0,-66.6 -80.72,-36.65 -114.62,-32.09 -69.04,9.31 -120.28,7.49 -120.28,57.48z"/>
   <path class="fil0" d="M1930 660.26l0 -177.76c22.86,-12.1 47.51,-19.93 69.83,-31.74l0 184.11c-12.69,6.09 -55.72,22.1 -69.83,25.4zm-82.54 -196.81l0 247.6c0,80.15 86.05,33.68 116.96,21.72 26,-10.06 44.28,-15.2 70.06,-25.16 27.92,-10.79 47.88,-18.32 47.88,-53.69 0,-44.67 9.65,-265.07 -8.74,-289.65 -25.05,-33.49 -78.62,1.4 -139.1,27.52 -50.81,21.94 -87.06,28.54 -87.06,71.66z"/>
   <path class="fil0" d="M1650.65 1187.2l0 -184.11c18.18,-4.24 42.04,-11.8 57.14,-19.04l0 190.46c-28.63,0.64 -33.55,7.2 -57.14,12.69zm-76.19 -209.5c0,71.13 -7.6,232.14 6.35,292.04 56.45,13.51 69.11,0.48 134.71,-17.66 101.42,-28.05 74.79,-22.68 74.79,-318.82 0,-78.25 -90.74,-30 -140.48,-13.51 -36.29,12.03 -75.38,13.08 -75.38,57.95z"/>
   <path class="fil0" d="M1650.65 2031.57l0 -190.46c32.14,0 32.65,-4.31 57.14,-6.35l0 190.46 -25.4 0c-10,0 -24.06,3.37 -31.74,6.35zm-76.19 -228.55c0,351.69 -27.27,313.63 107.71,304.51 138.98,-9.39 108.15,6.56 108.15,-310.86 0,-60.95 -49.43,-48.84 -98.01,-40.89 -40.67,6.67 -117.85,7.57 -117.85,47.24z"/>
   <path class="fil0" d="M1650.65 1606.21l0 -184.11c20.97,-1.75 38.09,-8.26 57.14,-12.7l0 190.46c-28.71,0.64 -25.23,6.35 -57.14,6.35zm-76.19 -222.2l0 279.35c0,57.39 109.98,20.5 136,15.37 105.33,-20.77 79.86,-5.22 79.86,-313.76 0,-74.25 -85.89,-37.13 -138.4,-24.12 -25.31,6.27 -77.46,10.49 -77.46,43.16z"/>
   <path class="fil0" d="M1650.65 761.84l0 -165.06c30.61,-2.55 29.27,-12.56 57.14,-19.04l0 165.06c-13.78,6.62 -39.16,17.55 -57.14,19.04zm-76.19 -196.81c0,70.33 -7.52,226.16 6.35,285.69 38.73,18.58 52.06,8.07 116.13,-17.19 117.47,-46.29 93.37,-6.37 93.37,-312.95 0,-82.12 -97.27,-25.5 -135.49,-8.52 -24.16,10.74 -80.37,26.19 -80.37,52.96z"/>
   <path class="fil0" d="M761.84 1707.79l0 -152.37c23.3,-0.52 35.18,-5.21 50.79,-12.7l0 152.37c-12.09,5.8 -33.89,11.29 -50.79,12.7zm-76.18 -184.12c0,68.24 -7.38,207.75 6.35,266.65 53,12.69 62.36,3.13 127.02,-12.66 94.33,-23.04 69.79,-13.83 69.79,-298.43 0,-60.43 -102.74,-11.06 -124.52,-3.89 -28.4,9.36 -78.64,15.91 -78.64,48.33z"/>
   <path class="fil0" d="M761.84 2076.01l0 -152.37c24.47,-2.04 20.47,-6.35 50.79,-6.35l0 152.37c-29.66,0 -26.26,3.78 -50.79,6.35zm-76.18 -190.46c0,68.24 -7.38,207.74 6.35,266.64 48.94,11.72 65.06,5.76 124.39,-2.59 96.33,-13.56 72.42,3.81 72.42,-283.1 0,-17.15 -3.04,-17.51 -6.35,-31.74 -54.39,-13.02 -58.39,-3.7 -124.37,8.95 -29.79,5.71 -72.43,10.69 -72.43,41.84z"/>
   <path class="fil0" d="M761.84 1339.57l0 -133.32c22.16,-5.16 33.14,-9.71 50.79,-19.05l0 139.67c-22.94,1.91 -30.25,7.92 -50.79,12.7zm-76.18 -165.06c0,67.23 -7.41,194.89 6.35,253.94 54.72,12.75 42.55,6.36 124.66,-21.36 97.09,-32.77 72.14,-17.42 72.14,-289.73 0,-55.84 -86.4,-12.82 -101.42,-6.19 -39.03,17.27 -101.74,34.53 -101.74,63.33z"/>
   <path class="fil0" d="M539.63 1764.93l0 -139.67c24.95,-0.56 14.89,1.74 31.74,-6.35l0 139.67c-13.42,0.3 -25.12,-1.13 -31.74,6.35zm-82.53 -158.72l0 203.16c0,71.91 81.71,36.5 121.93,26.69 90.46,-22.05 68.53,2 68.53,-267.94 0,-17.15 -3.03,-17.51 -6.35,-31.74 -40.81,-19.58 -58.93,-4.26 -103.91,10.37 -37.25,12.1 -80.2,12.53 -80.2,59.46z"/>
   <path class="fil0" d="M539.63 2107.75l0 -139.67c24.95,-0.56 14.89,1.74 31.74,-6.35l0 139.67c-12.06,1.01 -22.23,2.66 -31.74,6.35zm-82.53 -165.06l0 203.16c0,63.55 61.5,44.51 124.35,35.46 88.5,-12.74 66.11,-2.29 66.11,-264.02 0,-57.19 -54.57,-39.32 -94.7,-31.22 -43.02,8.68 -95.76,6.07 -95.76,56.62z"/>
   <path class="fil0" d="M539.63 1422.1l0 -120.62c16.7,-3.89 18.66,-5.78 31.74,-12.7l0 120.62c-15.27,3.56 -20.05,5.69 -31.74,12.7zm-82.53 -139.67l0 190.46c0,80.47 94.21,27.03 124.53,16.6 86.05,-29.57 65.93,-9.76 65.93,-257.85 0,-73.88 -85.05,-24.43 -96.06,-19.88 -35.12,14.46 -94.4,23.67 -94.4,70.67z"/>
  </g>
 </g>
</svg>
