<?xml version="1.0" encoding="UTF-8"?>
<!DOCTYPE svg PUBLIC "-//W3C//DTD SVG 1.1//EN" "http://www.w3.org/Graphics/SVG/1.1/DTD/svg11.dtd">
<!-- Creator: CorelDRAW -->
<svg xmlns="http://www.w3.org/2000/svg" xml:space="preserve" width="2.39411in" height="2.11356in" version="1.1" style="shape-rendering:geometricPrecision; text-rendering:geometricPrecision; image-rendering:optimizeQuality; fill-rule:evenodd; clip-rule:evenodd"
viewBox="0 0 3141.45 2773.31"
 xmlns:xlink="http://www.w3.org/1999/xlink"
 xmlns:xodm="http://www.corel.com/coreldraw/odm/2003">
 <defs>
  <style type="text/css">
   <![CDATA[
    .fil0 {fill:#FEFEFE}
   ]]>
  </style>
 </defs>
 <g id="Layer_x0020_1">
  <metadata id="CorelCorpID_0Corel-Layer"/>
  <g id="_2860357091296">
   <path class="fil0" d="M2172.02 1926.59l49.08 0 0 779.22 -49.08 0 0 -779.22zm-306.79 724l153.39 0 0 55.22 -153.39 0 0 -55.22zm-742.41 0l153.39 0 0 55.22 -153.39 0 0 -55.22zm-202.47 -724l42.95 0 0 779.22 -42.95 0 0 -779.22zm1110.55 0l79.76 0 0 779.22 -30.68 0 0 -122.71 -49.08 0 0 -656.51zm-116.58 0l49.09 0 0 656.51 -49.09 0 0 -656.51zm-736.28 0l49.09 0 0 656.51 -49.09 0 0 -656.51zm-116.58 779.22l-30.68 0 0 -779.22 79.77 0 0 656.51 -49.09 0 0 122.71zm1601.4 -711.73l239.29 0 0 454.04 -239.29 0 0 -454.04zm-374.27 0l128.85 0 0 454.04 -128.85 0 0 -454.04zm-1564.59 0l128.85 0 0 454.04 -128.85 0 0 -454.04zm-484.71 0l239.29 0 0 454.04 -239.29 0 0 -454.04zm681.05 -202.48l1300.75 0 0 67.49 -558.34 0 0 67.49 190.21 0 0 656.51 -49.09 0 0 122.71 -30.68 0 0 -417.22c0,-71.62 -17.08,-123.53 -53.55,-161.2 -90.23,-93.23 -204,-95.05 -294.8,-3.06 -38.62,39.13 -56.61,88.91 -56.61,164.27l0 417.22 -30.68 0 0 -122.71 -49.09 0 0 -656.51 190.21 0 0 -67.49 -558.34 0 0 -67.49zm1251.67 -79.76l0 -705.6c0,-13.65 160.02,-232.88 180.53,-261.23l138.47 -192.85c14.07,-19.94 37.96,-48.59 42.99,-67.45 17.92,12 77.54,100.37 95.57,125.31 29.13,40.27 272.57,375.56 272.57,390.08l0 926.48 -288.38 0c-14.13,0 -18.41,4.27 -18.41,18.41l0 503.12c-43.2,0 -36.81,-5.35 -36.81,67.49l343.6 0 0 190.21 -613.57 0 0 -190.21 214.75 0c28.06,0 28.06,-67.49 0,-67.49l-24.54 0 0 -521.53 -190.21 0 0 -134.99c85.28,0 73.63,11.14 73.63,-61.36l-171.8 0c-14.14,0 -18.41,-4.27 -18.41,-18.41zm-1220.99 18.41l-171.8 0c0,72.49 -11.66,61.36 73.63,61.36l0 134.99 -190.21 0 0 521.53c-48.08,0 -42.95,-4.81 -42.95,49.08 0,14.14 4.27,18.41 18.41,18.41l214.75 0 0 190.21 -613.56 0 0 -190.21 343.59 0c0,-72.83 6.39,-67.49 -36.81,-67.49l0 -503.12c0,-14.14 -4.27,-18.41 -18.41,-18.41l-288.37 0 0 -926.48c0,-9.88 345.72,-500.39 368.14,-515.39 6.15,23.04 73.97,110.07 89.43,131.45 29.13,40.27 272.57,375.56 272.57,390.08l0 705.6c0,14.13 -4.27,18.41 -18.4,18.41zm79.76 -711.74l1079.88 0 0 55.22 -447.9 0 0 67.49 447.9 0 0 589.02 -1079.88 0 0 -589.02 447.9 0 0 -67.49 -447.9 0 0 -55.22zm-214.74 -552.21c16.82,-25.11 257.01,-260.08 299.11,-302.18 17.65,-17.65 84.77,-96.63 105.84,-96.63l699.46 0c20.88,0 85.46,76.25 102.77,93.57l302.18 305.25 -170.07 241.01c-23.45,31.27 -162.03,223.63 -167.39,243.7l-834.44 0c-6.99,-26.17 -311.29,-445.64 -337.46,-484.72zm1313.03 484.72l-67.49 0 445.3 -628.44c12.23,-17.07 17.35,-29.67 33.28,-40.34 15.32,11.22 154.7,212.73 177.91,245.45l294.53 423.34 -61.36 0c-114.89,-171.58 -274.4,-374.9 -385.29,-541.2 -12.03,-18.04 -14.59,-23.94 -31.94,-35.56 -4.63,17.33 -12.16,22.07 -23.29,38.07 -61.21,88.02 -357.35,492.72 -381.66,538.68zm-1938.86 0l-61.36 0c4.53,-16.95 100.98,-149.26 114.07,-168.17l120.01 -168.36c21,-28.39 37.13,-53.15 57.93,-83.2l180.44 -249.06c20.29,13.59 152.7,209.81 177.96,245.4l239.27 337.48c19.33,29.39 42.13,57.19 61.36,85.9l-67.49 0 -202.52 -288.33c-13.1,-18.57 -196.47,-266.08 -202.43,-288.42 -14.57,9.75 -19.28,16.37 -29.54,31.81l-181.53 254.1c-68.85,99.74 -139.74,191.68 -206.15,290.84zm582.89 -539.94c-6.14,-23.01 -106.87,-155.09 -125.18,-181.61 -13.39,-19.38 -35.05,-43.45 -40.49,-63.82 -18.35,12.29 -26.03,26.53 -39.25,46.65l-266.61 377.64c-26,35.16 -47.61,69.11 -73.63,104.31 -26.85,36.33 -48.95,71.35 -76.28,107.79l-151.67 216.47 171.8 0 0 1687.3 -141.12 0 0 67.49 1509.37 0 0 -67.49 -104.31 0 0 -454.04c0,-165.45 269.97,-178.09 269.97,12.27l0 441.76 -104.31 0 0 67.49 1509.37 0 0 -67.49 -141.12 0 0 -1687.3 171.8 0c-23.93,-35.73 -46.73,-70.11 -72.7,-105.24 -98.85,-133.67 -204.33,-295.34 -302.51,-427.63l-190.2 -269.97c-15.13,-20.51 -21.06,-35.98 -42.02,-50.02 -5.43,20.33 -64.65,97.55 -80.91,121.56 -28.77,42.48 -60.73,78.49 -84.75,123.87l-314.45 -311.39c-17.98,-17.98 -87.65,-99.7 -108.9,-99.7l-748.55 0c-19.37,0 -187.5,178.3 -213.21,204.01l-210.15 207.08z"/>
   <path class="fil0" d="M1392.79 1368.25l0 306.78 147.26 0 0 -61.36 -79.76 0 0 -263.84c0,-48.46 51.27,-92.03 116.58,-92.03 48.36,0 104.31,45.63 104.31,92.03l0 263.84 -79.76 0 0 61.36 147.26 0 0 -306.78c0,-74.04 -45.36,-133.47 -104.18,-159.65 -123.97,-55.18 -251.69,37.45 -251.69,159.65z"/>
   <path class="fil0" d="M411.09 1257.81l67.49 0 0 355.87 -67.49 0 0 -355.87zm-67.49 355.87l-55.22 0 0 61.36 294.51 0 0 -61.36 -36.81 0 0 -404.95c0,-14.14 -4.27,-18.41 -18.41,-18.41l-184.07 0 0 423.36z"/>
   <path class="fil0" d="M2662.87 1257.81l67.49 0 0 355.87 -67.49 0 0 -355.87zm-67.49 -49.09l0 404.95 -36.81 0 0 61.36 294.51 0 0 -61.36 -55.22 0 0 -423.36 -184.07 0c-14.13,0 -18.41,4.27 -18.41,18.41z"/>
   <path class="fil0" d="M724 1257.81l73.63 0 0 355.87 -73.63 0 0 -355.87zm-61.36 355.87l-42.95 0 0 61.36 282.24 0 0 -61.36 -42.95 0 0 -423.36 -196.34 0 0 423.36z"/>
   <path class="fil0" d="M2343.81 1257.81l73.63 0 0 355.87 -73.63 0 0 -355.87zm-61.36 355.87l-42.94 0 0 61.36 282.24 0 0 -61.36 -42.95 0 0 -423.36 -196.34 0 0 423.36z"/>
   <path class="fil0" d="M1908.19 1282.35c0,-18.87 17.97,-24.54 36.81,-24.54 19.83,0 30.68,22.27 30.68,42.95l0 312.92 -67.49 0 0 -331.32zm-67.49 0l0 392.68 202.47 0c0,-86.01 14.29,-388.48 -20.68,-439.49 -58.54,-85.38 -181.8,-31.83 -181.8,46.81z"/>
   <path class="fil0" d="M1165.77 1300.76c0,-20.68 10.84,-42.95 30.68,-42.95 18.84,0 36.81,5.68 36.81,24.54l0 331.32 -67.49 0 0 -312.92zm-67.49 36.81l0 337.46 202.47 0 0 -392.68c0,-71.19 -114.84,-135.3 -179.21,-50.37 -18.21,24.02 -23.26,64.77 -23.26,105.59z"/>
   <path class="fil0" d="M1742.52 478.58c0,-40.03 47.52,-72.58 84.29,-70.75 43.86,2.19 81.37,36.11 81.37,76.89l0 128.85 -165.67 0 0 -134.99zm-67.49 6.14l0 177.93c0,14.14 4.27,18.41 18.41,18.41l263.83 0c14.14,0 18.41,-4.27 18.41,-18.41l0 -165.66c0,-94.47 -65.32,-153.39 -165.66,-153.39 -67.94,0 -134.98,73.04 -134.98,141.12z"/>
   <path class="fil0" d="M1233.27 484.72c0,-40.77 37.51,-74.7 81.37,-76.89 36.77,-1.83 84.29,30.72 84.29,70.75l0 134.99 -165.66 0 0 -128.85zm-67.49 12.27l0 165.66c0,14.14 4.27,18.41 18.41,18.41l263.83 0c14.14,0 18.41,-4.27 18.41,-18.41l0 -177.93c0,-69.6 -60.04,-141.12 -153.39,-141.12 -84.29,0 -147.26,69.24 -147.26,153.39z"/>
   <path class="fil0" d="M515.39 877.4c0,-51.08 36.62,-92.04 85.9,-92.04 49.28,0 85.9,40.96 85.9,92.04l0 116.58 -171.8 0 0 -116.58zm-61.36 -18.41l0 196.34 300.65 0c0,-94.23 13.74,-211.97 -33.05,-273.73 -85.75,-113.19 -267.6,-48.07 -267.6,77.4z"/>
   <path class="fil0" d="M2454.26 877.4c0,-51.08 36.62,-92.04 85.9,-92.04 49.28,0 85.9,40.96 85.9,92.04l0 116.58 -171.8 0 0 -116.58zm-67.49 18.41l0 159.52 300.65 0 0 -196.34c0,-67.5 -67.49,-134.99 -134.99,-134.99 -52.17,0 -90.58,4.78 -129.95,54.12 -23.47,29.42 -35.71,66.42 -35.71,117.68z"/>
   <polygon class="fil0" points="1540.05,1141.23 1601.4,1141.23 1601.4,1073.74 1540.05,1073.74 "/>
   <polygon class="fil0" points="1540.05,1926.59 1601.4,1926.59 1601.4,1859.1 1540.05,1859.1 "/>
  </g>
 </g>
</svg>
